<svg width="24" height="24" viewBox="0 0 24 24" fill="none" xmlns="http://www.w3.org/2000/svg">
<path d="M3.71422 14.5711V16.8569C3.72336 18.4637 4.48222 18.214 5.0445 17.7317L8.28564 14.8054V16.2854C8.28564 17.674 8.60565 17.9997 9.99993 17.9997H15.1428C15.1428 17.9997 18.1194 21.4997 18.1428 21.4763C18.5714 21.9997 19.7319 21.8214 19.7142 20.8569V17.9997H21.4285C22.8285 17.9997 23.1428 17.6517 23.1428 16.2854V7.71401C23.1428 6.34258 22.8056 5.99972 21.4285 5.99972H15.7142V4.85686C15.7142 3.44544 15.4514 3.14258 13.9999 3.14258H1.99993C0.651359 3.14258 0.285645 3.43401 0.285645 4.85686V12.2854C0.285645 13.6791 0.59993 14.5711 1.99993 14.5711H3.71422ZM17.9999 16.2854V18.9832L15.7142 16.2854H10.5714C10.1428 16.2854 9.99993 16.1312 9.99993 15.714V8.28544C9.99993 7.90258 10.1771 7.71401 10.5714 7.71401H20.8571C21.2508 7.71401 21.4285 7.92544 21.4285 8.25115V15.714C21.4285 16.126 21.2234 16.2854 20.8571 16.2854H17.9999Z" fill="black"/>
</svg>
