<svg width="64" height="65" viewBox="0 0 64 65" fill="none" xmlns="http://www.w3.org/2000/svg">
<g filter="url(#filter0_dd_113_690)">
<circle cx="32" cy="24.502" r="12" fill="white"/>
<path fill-rule="evenodd" clip-rule="evenodd" d="M28.2675 17.502C26.4629 17.502 25 18.9649 25 20.7694V28.3044C25 30.109 26.4629 31.5719 28.2675 31.5719H35.8024C37.607 31.5719 39.0699 30.109 39.0699 28.3044V20.7694C39.0699 18.9649 37.607 17.502 35.8024 17.502H28.2675ZM24 20.7694C24 18.4126 25.9106 16.502 28.2675 16.502H35.8024C38.1593 16.502 40.0699 18.4126 40.0699 20.7694V28.3044C40.0699 30.6613 38.1593 32.5719 35.8024 32.5719H28.2675C25.9106 32.5719 24 30.6613 24 28.3044V20.7694ZM32.4364 22.0174C31.9134 21.9398 31.3792 22.0292 30.9098 22.2727C30.4404 22.5162 30.0598 22.9016 29.8221 23.3739C29.5844 23.8462 29.5016 24.3815 29.5856 24.9036C29.6696 25.4256 29.9161 25.9079 30.29 26.2818C30.6639 26.6557 31.1462 26.9022 31.6683 26.9862C32.1903 27.0702 32.7256 26.9875 33.1979 26.7497C33.6703 26.512 34.0556 26.1314 34.2991 25.662C34.5427 25.1927 34.632 24.6585 34.5545 24.1354C34.4753 23.6019 34.2267 23.1079 33.8453 22.7265C33.4639 22.3451 32.97 22.0965 32.4364 22.0174ZM30.4492 21.3851C31.1053 21.0447 31.852 20.9198 32.5831 21.0282C33.3289 21.1388 34.0193 21.4863 34.5524 22.0194C35.0855 22.5525 35.4331 23.243 35.5436 23.9887C35.6521 24.7199 35.5272 25.4665 35.1868 26.1226C34.8463 26.7787 34.3077 27.3107 33.6475 27.643C32.9873 27.9753 32.2391 28.0909 31.5094 27.9735C30.7797 27.8561 30.1055 27.5116 29.5829 26.9889C29.0603 26.4663 28.7157 25.7922 28.5983 25.0624C28.4809 24.3327 28.5966 23.5845 28.9289 22.9243C29.2612 22.2641 29.7932 21.7255 30.4492 21.3851ZM36.1792 19.8927C35.903 19.8927 35.6792 20.1166 35.6792 20.3927C35.6792 20.6688 35.903 20.8927 36.1792 20.8927H36.1878C36.464 20.8927 36.6878 20.6688 36.6878 20.3927C36.6878 20.1166 36.464 19.8927 36.1878 19.8927H36.1792Z" fill="black"/>
</g>
<defs>
<filter id="filter0_dd_113_690" x="0" y="0.501953" width="64" height="64" filterUnits="userSpaceOnUse" color-interpolation-filters="sRGB">
<feFlood flood-opacity="0" result="BackgroundImageFix"/>
<feColorMatrix in="SourceAlpha" type="matrix" values="0 0 0 0 0 0 0 0 0 0 0 0 0 0 0 0 0 0 127 0" result="hardAlpha"/>
<feMorphology radius="4" operator="erode" in="SourceAlpha" result="effect1_dropShadow_113_690"/>
<feOffset dy="8"/>
<feGaussianBlur stdDeviation="12"/>
<feColorMatrix type="matrix" values="0 0 0 0 0.0941176 0 0 0 0 0.152941 0 0 0 0 0.294118 0 0 0 0.08 0"/>
<feBlend mode="normal" in2="BackgroundImageFix" result="effect1_dropShadow_113_690"/>
<feColorMatrix in="SourceAlpha" type="matrix" values="0 0 0 0 0 0 0 0 0 0 0 0 0 0 0 0 0 0 127 0" result="hardAlpha"/>
<feMorphology radius="6" operator="erode" in="SourceAlpha" result="effect2_dropShadow_113_690"/>
<feOffset dy="6"/>
<feGaussianBlur stdDeviation="6"/>
<feColorMatrix type="matrix" values="0 0 0 0 0.0941176 0 0 0 0 0.152941 0 0 0 0 0.294118 0 0 0 0.12 0"/>
<feBlend mode="normal" in2="effect1_dropShadow_113_690" result="effect2_dropShadow_113_690"/>
<feBlend mode="normal" in="SourceGraphic" in2="effect2_dropShadow_113_690" result="shape"/>
</filter>
</defs>
</svg>
